<svg width="14" height="14" viewBox="0 0 14 14" fill="none" xmlns="http://www.w3.org/2000/svg">
<path d="M11.952 2.04782C9.22155 -0.682634 4.77854 -0.682903 2.04782 2.04782C-0.682903 4.77854 -0.682634 9.22128 2.04782 11.952C4.77827 14.6827 9.22128 14.6827 11.952 11.952C14.6825 9.22128 14.6825 4.77827 11.952 2.04782ZM9.76161 9.76161C9.55124 9.97198 9.21024 9.97198 8.99987 9.76161L6.99991 7.76165L4.90487 9.85669C4.6945 10.0671 4.3535 10.0671 4.14313 9.85669C3.93277 9.64633 3.93277 9.30532 4.14313 9.09495L6.23818 6.99991L4.23821 4.99995C4.02785 4.78958 4.02785 4.44831 4.23821 4.23821C4.44858 4.02785 4.78958 4.02785 4.99995 4.23821L6.99991 6.23817L8.90452 4.33357C9.11489 4.1232 9.45589 4.1232 9.66626 4.33357C9.87663 4.54393 9.87663 4.88493 9.66626 5.0953L7.76165 6.99991L9.76161 8.99987C9.97198 9.21024 9.97198 9.55124 9.76161 9.76161Z" fill="#EE634C"/>
</svg>
